# xmcd
#
# Track frame offsets: 
#        150
#        18910
#        32034
#        70990
#        86200
#        98956
#        110654
#        125251
#        142069
#        158115
#        189996
#        202351
#        220930
#        233972
#
# Disc length: 3523 seconds
#
# Revision: 0
# Processed by: cddbd v1.5.2PL0 Copyright (c) Steve Scherf et al.
# Submitted via: ExactAudioCopy v0.95b4
#
DISCID=d00dc10e
DTITLE=Curtis King - King of Blues
DYEAR=2007
DGENRE=Blues
TTITLE0=Caldonia
TTITLE1=Feel Good
TTITLE2=Need Your Love So Bad
TTITLE3=Sweet Home Chicago
TTITLE4=Messin' With The Kid
TTITLE5=Memphis Blues
TTITLE6=Jailhouse Rock
TTITLE7=Here I come
TTITLE8=Born Under A Bad Sign
TTITLE9=Steam Train Blues
TTITLE10=My Baby's So Fine
TTITLE11=Walkin' Away From You
TTITLE12=Long Gray Mare
TTITLE13=Take My Hand
EXTD=
EXTT0=
EXTT1=
EXTT2=
EXTT3=
EXTT4=
EXTT5=
EXTT6=
EXTT7=
EXTT8=
EXTT9=
EXTT10=
EXTT11=
EXTT12=
EXTT13=
PLAYORDER=
